<?xml version="1.0" encoding="UTF-8" standalone="no"?>
<!-- Created with Inkscape (http://www.inkscape.org/) -->

<svg
   xmlns:dc="http://purl.org/dc/elements/1.1/"
   xmlns:cc="http://creativecommons.org/ns#"
   xmlns:rdf="http://www.w3.org/1999/02/22-rdf-syntax-ns#"
   xmlns:svg="http://www.w3.org/2000/svg"
   xmlns="http://www.w3.org/2000/svg"
   xmlns:sodipodi="http://sodipodi.sourceforge.net/DTD/sodipodi-0.dtd"
   xmlns:inkscape="http://www.inkscape.org/namespaces/inkscape"
   width="203.40117"
   height="243.6281"
   id="svg23375"
   version="1.1"
   inkscape:version="0.48.2 r9819"
   sodipodi:docname="New document 14">
  <defs
     id="defs23377">
    <clipPath
       clipPathUnits="userSpaceOnUse"
       id="clipPath9385">
      <path
         inkscape:connector-curvature="0"
         d="m 149.49,547.491 11.523,0 0,6.811 -11.523,0 0,-6.811 z"
         clip-rule="evenodd"
         id="path9387" />
    </clipPath>
    <clipPath
       clipPathUnits="userSpaceOnUse"
       id="clipPath9373">
      <path
         inkscape:connector-curvature="0"
         d="m 145.807,553.312 18.453,0 0,10.296 -18.453,0 0,-10.296 z"
         clip-rule="evenodd"
         id="path9375" />
    </clipPath>
    <clipPath
       clipPathUnits="userSpaceOnUse"
       id="clipPath9315">
      <path
         inkscape:connector-curvature="0"
         d="m 150.994,547.491 7.999,0 0,7.207 -7.999,0 0,-7.207 z"
         clip-rule="evenodd"
         id="path9317" />
    </clipPath>
    <clipPath
       clipPathUnits="userSpaceOnUse"
       id="clipPath9305">
      <path
         inkscape:connector-curvature="0"
         d="m 145.807,553.629 18.295,0 0,10.216 -18.295,0 0,-10.216 z"
         clip-rule="evenodd"
         id="path9307" />
    </clipPath>
  </defs>
  <sodipodi:namedview
     id="base"
     pagecolor="#ffffff"
     bordercolor="#666666"
     borderopacity="1.0"
     inkscape:pageopacity="0.0"
     inkscape:pageshadow="2"
     inkscape:zoom="1"
     inkscape:cx="57.961563"
     inkscape:cy="193.58117"
     inkscape:document-units="px"
     inkscape:current-layer="layer1"
     showgrid="false"
     fit-margin-top="0"
     fit-margin-left="0"
     fit-margin-right="0"
     fit-margin-bottom="0"
     inkscape:window-width="1680"
     inkscape:window-height="960"
     inkscape:window-x="-4"
     inkscape:window-y="-4"
     inkscape:window-maximized="1" />
  <metadata
     id="metadata23380">
    <rdf:RDF>
      <cc:Work
         rdf:about="">
        <dc:format>image/svg+xml</dc:format>
        <dc:type
           rdf:resource="http://purl.org/dc/dcmitype/StillImage" />
        <dc:title></dc:title>
      </cc:Work>
    </rdf:RDF>
  </metadata>
  <g
     inkscape:label="Layer 1"
     inkscape:groupmode="layer"
     id="layer1"
     transform="translate(-317.03843,-193.97653)">
    <g
       transform="matrix(11.022661,0,0,-11.022661,-1290.1427,6472.7598)"
       id="g9293">
      <path
         inkscape:connector-curvature="0"
         d="m 151.267,553.842 c -0.342,-0.498 -0.681,-0.997 -0.938,-1.495 -0.171,-0.25 -0.426,-0.747 -0.426,-1.079 0,-0.334 0.255,-0.25 0.596,-0.25 0.513,-0.084 1.022,0.416 1.451,0.582 l -0.683,2.242 z"
         style="fill:#ffff85;fill-opacity:1;fill-rule:nonzero;stroke:none"
         id="path9295" />
    </g>
    <g
       transform="matrix(11.022661,0,0,-11.022661,-1290.1427,6472.7598)"
       id="g9297">
      <path
         inkscape:connector-curvature="0"
         d="m 158.768,553.76 c 0.513,-0.416 0.938,-0.997 1.364,-1.497 0.171,-0.248 0.596,-0.748 0.512,-1.079 -0.084,-0.332 -0.596,-0.416 -0.851,-0.332 -0.599,0.082 -1.109,0.748 -1.366,1.245 l 0.341,1.663 z"
         style="fill:#ffff85;fill-opacity:1;fill-rule:nonzero;stroke:none"
         id="path9299" />
    </g>
    <g
       transform="matrix(11.022661,0,0,-11.022661,-1290.1427,6472.7598)"
       id="g9301">
      <g
         id="g9303"
         clip-path="url(#clipPath9305)">
        <path
           inkscape:connector-curvature="0"
           d="m 148.794,563.561 c -0.51,-0.166 -0.767,-0.5 -1.193,-0.831 -0.683,-0.416 -1.364,-1.245 -1.705,-2.077 -0.171,-0.331 -0.171,-0.747 -0.171,-1.163 0.087,-0.416 0,-0.829 0.087,-1.245 0.084,-0.666 0.255,-1.413 0.767,-1.995 0.255,-0.247 0.51,-0.581 0.851,-0.747 0.342,-0.332 0.854,-0.498 1.28,-0.748 0.255,-0.166 0.426,-0.247 0.767,-0.331 0.171,-0.085 0.255,-0.085 0.426,-0.085 0.255,0 0.512,-0.081 0.851,-0.081 0.767,-0.166 1.535,-0.416 2.302,-0.416 0.428,0 0.854,-0.082 1.28,-0.082 0.512,-0.084 1.108,0 1.705,0.082 1.109,0.084 2.302,0.084 3.495,0.25 0.596,0.082 1.192,0.416 1.705,0.747 0.426,0.332 0.938,0.582 1.45,0.914 0.597,0.497 1.193,1.079 1.193,1.91 0,0.498 0.171,0.998 0.171,1.495 0,0.582 -0.426,1.164 -0.597,1.661 -0.086,0.334 -0.17,0.666 -0.341,0.913 -0.171,0.25 -0.342,0.416 -0.512,0.666 -0.426,0.498 -0.597,1.163 -1.193,1.411 l -12.618,-0.248 z"
           style="fill:#ffff85;fill-opacity:1;fill-rule:nonzero;stroke:none"
           id="path9309" />
      </g>
    </g>
    <g
       transform="matrix(11.022661,0,0,-11.022661,-1290.1427,6472.7598)"
       id="g9311">
      <g
         id="g9313"
         clip-path="url(#clipPath9315)">
        <path
           inkscape:connector-curvature="0"
           d="m 151.182,554.424 c 0,-0.25 -0.086,-0.416 -0.086,-0.748 0,-0.581 0.171,-1.079 0.086,-1.745 -0.086,-0.997 -0.17,-1.992 0.085,-2.99 0.17,-0.415 0,-1.079 0.512,-1.329 0.341,-0.084 0.596,0.085 0.767,0.416 0.171,0.416 0.255,0.913 0.426,1.329 0,0.082 0,0.25 0.084,0.416 0.171,0.082 0.428,0 0.599,-0.084 0.426,0 0.851,0 1.277,0 0.426,0 0.854,0 1.193,-0.082 0.342,-0.168 0.342,-0.084 0.428,-0.416 0.171,-0.581 0.426,-1.994 1.277,-1.163 0.768,0.748 0.854,1.745 0.938,2.658 0,0.914 0.171,2.243 0.171,3.156 0,0.25 -0.255,0.25 -0.255,0.582 -0.086,0.084 -0.086,0.165 -0.086,0.25 l -7.416,-0.25 z"
           style="fill:#ffff85;fill-opacity:1;fill-rule:nonzero;stroke:none"
           id="path9319" />
      </g>
    </g>
    <g
       transform="matrix(11.022661,0,0,-11.022661,-1290.1427,6472.7598)"
       id="g9321">
      <path
         inkscape:connector-curvature="0"
         d="m 152.717,559.906 c -0.171,0.497 -0.597,0.747 -1.025,0.913 -0.255,0.084 -1.705,0.166 -2.131,0.166 -0.596,0 -1.193,-0.248 -1.534,-0.829 -0.426,-0.832 -0.255,-1.829 0.512,-2.493 0.597,-0.581 1.535,-0.665 2.302,-0.665 0.596,0.084 1.534,0.5 1.789,1.081 0.342,0.582 0.342,1.245 0.087,1.827 z"
         style="fill:#ffffff;fill-opacity:1;fill-rule:nonzero;stroke:#153362;stroke-width:0.50400001;stroke-linecap:round;stroke-linejoin:round;stroke-miterlimit:10;stroke-opacity:1;stroke-dasharray:none"
         id="path9323" />
    </g>
    <g
       transform="matrix(11.022661,0,0,-11.022661,-1290.1427,6472.7598)"
       id="g9325">
      <path
         inkscape:connector-curvature="0"
         d="m 160.56,559.74 c -0.512,0.913 -2.302,0.997 -2.302,0.997 -0.341,0 -0.683,0 -1.024,-0.084 -0.342,-0.082 -0.767,-0.331 -1.022,-0.663 -0.255,-0.334 -0.597,-0.748 -0.513,-1.163 0,-0.914 0.683,-1.579 1.535,-1.745 0.683,-0.25 1.279,-0.25 2.047,0 0.68,0.166 1.193,0.331 1.534,0.997 0.171,0.582 0.084,1.163 -0.255,1.661 z"
         style="fill:#ffffff;fill-opacity:1;fill-rule:nonzero;stroke:none"
         id="path9327" />
    </g>
    <g
       transform="matrix(11.022661,0,0,-11.022661,-1290.1427,6472.7598)"
       id="g9329">
      <g
         id="g9331">
        <path
           inkscape:connector-curvature="0"
           d="m 160.56,559.74 c -0.512,0.913 -2.302,0.997 -2.302,0.997 -0.341,0 -0.683,0 -1.024,-0.084 -0.342,-0.082 -0.767,-0.331 -1.022,-0.663 -0.255,-0.334 -0.597,-0.748 -0.513,-1.163 0,-0.914 0.683,-1.579 1.535,-1.745 0.683,-0.25 1.279,-0.25 2.047,0 0.68,0.166 1.193,0.331 1.534,0.997 0.171,0.582 0.084,1.163 -0.255,1.661"
           style="fill:none;stroke:#153362;stroke-width:0.50400001;stroke-linecap:round;stroke-linejoin:round;stroke-miterlimit:10;stroke-opacity:1;stroke-dasharray:none"
           id="path9333" />
      </g>
    </g>
    <g
       transform="matrix(11.022661,0,0,-11.022661,-1290.1427,6472.7598)"
       id="g9335">
      <path
         inkscape:connector-curvature="0"
         d="m 158.343,560.819 c 0.255,-0.082 0.17,-1.079 0.17,-1.411 0.085,-0.5 0.085,-1.081 0.085,-1.663 0,-0.332 0.17,-0.579 0,-0.829 -0.255,-0.25 -1.023,-0.25 -1.193,-0.084 -1.109,0.416 -2.047,1.579 -1.535,2.742 0.171,0.498 0.512,0.829 1.022,1.079 0.513,0.25 0.938,0.332 1.451,0.166 z"
         style="fill:#153362;fill-opacity:1;fill-rule:nonzero;stroke:none"
         id="path9337" />
    </g>
    <g
       transform="matrix(11.022661,0,0,-11.022661,-1290.1427,6472.7598)"
       id="g9339">
      <path
         inkscape:connector-curvature="0"
         d="m 150.074,560.903 c -0.342,-0.084 -0.597,0.082 -0.854,0 -0.51,-0.084 -1.107,-0.581 -1.277,-1.079 -0.426,-0.997 0.084,-2.161 1.108,-2.492 0.34,-0.084 0.681,-0.166 1.023,-0.166 0.425,-0.084 0.512,0.247 0.596,0.663 0.084,0.582 0.171,1.329 0,1.911 0,0.332 -0.171,0.913 -0.426,1.079 l -0.17,0.084 z"
         style="fill:#153362;fill-opacity:1;fill-rule:nonzero;stroke:none"
         id="path9341" />
    </g>
    <g
       transform="matrix(11.022661,0,0,-11.022661,-1290.1427,6472.7598)"
       id="g9343">
      <g
         id="g9345">
        <path
           inkscape:connector-curvature="0"
           d="m 153.313,556.084 c 0.085,-0.581 1.109,-0.497 1.535,-0.497 0.255,0 1.109,0.082 1.109,0.497"
           style="fill:none;stroke:#153362;stroke-width:0.50400001;stroke-linecap:round;stroke-linejoin:round;stroke-miterlimit:10;stroke-opacity:1;stroke-dasharray:none"
           id="path9347" />
      </g>
    </g>
    <g
       transform="matrix(11.022661,0,0,-11.022661,-1290.1427,6472.7598)"
       id="g9349">
      <path
         inkscape:connector-curvature="0"
         d="m 150.158,555.918 c 0,-0.497 -0.597,-0.997 -1.364,-0.997 -0.767,0 -1.364,0.5 -1.364,0.997 0,0.582 0.597,0.998 1.364,0.998 0.767,0 1.364,-0.416 1.364,-0.998 z"
         style="fill:#fb9d9e;fill-opacity:1;fill-rule:nonzero;stroke:none"
         id="path9351" />
    </g>
    <g
       transform="matrix(11.022661,0,0,-11.022661,-1290.1427,6472.7598)"
       id="g9353">
      <path
         inkscape:connector-curvature="0"
         d="m 161.753,556.003 c 0,-0.582 -0.596,-0.998 -1.364,-0.998 -0.683,0 -1.363,0.416 -1.363,0.998 0,0.497 0.68,0.913 1.363,0.913 0.768,0 1.364,-0.416 1.364,-0.913 z"
         style="fill:#fb9d9e;fill-opacity:1;fill-rule:nonzero;stroke:none"
         id="path9355" />
    </g>
    <g
       transform="matrix(11.022661,0,0,-11.022661,-1290.1427,6472.7598)"
       id="g9357">
      <path
         inkscape:connector-curvature="0"
         d="m 149.136,559.574 c 0,-0.416 -0.085,-0.747 -0.255,-0.747 -0.258,0 -0.342,0.331 -0.342,0.747 0,0.332 0.084,0.663 0.342,0.663 0.17,0 0.255,-0.331 0.255,-0.663 z"
         style="fill:#ffffff;fill-opacity:1;fill-rule:nonzero;stroke:none"
         id="path9359" />
    </g>
    <g
       transform="matrix(11.022661,0,0,-11.022661,-1290.1427,6472.7598)"
       id="g9361">
      <path
         inkscape:connector-curvature="0"
         d="m 156.808,559.574 c 0,-0.416 -0.171,-0.747 -0.341,-0.747 -0.171,0 -0.342,0.331 -0.342,0.747 0,0.332 0.171,0.663 0.342,0.663 0.17,0 0.341,-0.331 0.341,-0.663 z"
         style="fill:#ffffff;fill-opacity:1;fill-rule:nonzero;stroke:none"
         id="path9363" />
    </g>
    <g
       transform="matrix(11.022661,0,0,-11.022661,-1290.1427,6472.7598)"
       id="g9365">
      <path
         inkscape:connector-curvature="0"
         d="m 148.027,564.39 c 0,0.582 0,1.164 -0.084,1.829 0,0.582 0,1.164 0.341,1.661 0.51,0.998 1.619,1.579 2.728,1.579 0.596,0 1.108,0 1.705,-0.25 0.51,-0.25 0.681,-0.666 0.938,-1.163 0.255,-0.582 0.255,-1.245 0.255,-1.827 0,-0.5 0,-1.081 0.084,-1.494 0.171,0.165 0.342,0.081 0.596,0.081 0.258,0.084 0.513,0.084 0.768,0.084 0.341,0 0.683,0.082 1.109,0.166 -0.255,0.748 -0.255,1.579 -0.171,2.327 0.086,0.413 0.171,0.829 0.428,1.245 0.084,0.165 0.339,0.581 0.596,0.747 0.171,0.166 0.597,0.166 0.852,0.25 0.255,0 0.512,0 0.767,0 0.597,-0.084 0.938,-0.416 1.45,-0.747 0.51,-0.335 1.023,-0.832 1.193,-1.495 0.171,-0.582 0.171,-1.329 0.171,-1.995 0,-0.332 0,-0.582 0,-0.829 0,-0.25 0,-0.169 0.084,-0.334 0.087,-0.166 0.258,-0.332 0.342,-0.498 0.084,-0.166 0.171,-0.416 0.255,-0.666 0.086,-0.247 0.257,-0.413 0.341,-0.663 0.087,-0.166 0.087,-0.25 0,-0.332 -0.255,-0.084 -0.767,0 -0.938,0 -0.596,0 -1.022,0.082 -1.534,0.082 -0.681,0 -1.364,-0.082 -2.045,-0.082 -1.108,0 -2.133,-0.084 -3.239,-0.084 -0.597,0 -1.196,0 -1.792,0.084 -0.597,0 -1.277,-0.084 -1.874,0 -0.854,0.166 -1.621,0.332 -2.472,0.414 -0.429,0 -1.025,-0.082 -1.451,0.084 0,0.416 0.426,0.997 0.683,1.329 l -0.086,0.497 z"
         style="fill:#153362;fill-opacity:1;fill-rule:nonzero;stroke:none"
         id="path9367" />
    </g>
    <g
       transform="matrix(11.022661,0,0,-11.022661,-1290.1427,6472.7598)"
       id="g9369">
      <g
         id="g9371"
         clip-path="url(#clipPath9373)">
        <g
           id="g9377">
          <path
             inkscape:connector-curvature="0"
             d="m 148.113,563.311 c -0.086,-0.331 -0.428,-0.415 -0.596,-0.581 -0.342,-0.416 -0.683,-0.829 -0.854,-1.245 -0.512,-0.914 -0.767,-1.995 -0.681,-2.99 0.085,-0.916 0.34,-1.995 1.023,-2.742 0.512,-0.582 1.108,-0.914 1.876,-1.164 1.448,-0.415 2.811,-0.663 4.262,-0.829 0.425,0 0.767,0 1.108,0 0.426,-0.084 0.768,-0.084 1.107,0 0.854,0.166 1.705,0 2.559,0.166 0.426,0 0.851,0.166 1.364,0.166 0.255,0 0.425,0.082 0.68,0.166 0.342,0.081 0.767,0.081 1.109,0.25 0.767,0.331 1.535,0.829 2.047,1.576 0.255,0.416 0.68,0.914 0.767,1.495 0.084,0.666 0.255,1.495 0,2.161 -0.171,0.663 -0.512,1.079 -0.854,1.661 -0.084,0.25 -0.168,0.415 -0.339,0.665 -0.086,0.166 -0.341,0.582 -0.512,0.664"
             style="fill:none;stroke:#153362;stroke-width:0.50400001;stroke-linecap:round;stroke-linejoin:round;stroke-miterlimit:10;stroke-opacity:1;stroke-dasharray:none"
             id="path9379" />
        </g>
      </g>
    </g>
    <g
       transform="matrix(11.022661,0,0,-11.022661,-1290.1427,6472.7598)"
       id="g9381">
      <g
         id="g9383"
         clip-path="url(#clipPath9385)">
        <g
           id="g9389">
          <path
             inkscape:connector-curvature="0"
             d="m 151.182,554.008 c -0.341,-0.913 -1.195,-1.495 -1.279,-2.408 -0.084,-0.25 0,-0.498 0.255,-0.582 0.428,-0.084 0.683,0.25 1.109,0.416 0.17,-0.332 0,-0.913 0,-1.248 0,-0.497 0.17,-1.079 0.17,-1.66 0.084,-0.248 0.084,-0.498 0.255,-0.664 0.258,-0.25 0.683,0.082 0.854,0.416 0.084,0.166 0.255,0.413 0.255,0.579 0.087,0.169 0,0.582 0.171,0.666 0.171,0 0.426,0 0.512,-0.084 0.255,0 0.51,0 0.852,0 0.512,0 1.022,0.084 1.534,0.084 0.255,0 0.597,0.084 0.854,0.084 0,-0.5 0.168,-1.081 0.339,-1.497 0.171,-0.413 0.683,-0.166 0.938,0.168 0.342,0.498 0.426,1.245 0.512,1.908 0,0.416 0.171,0.832 0.171,1.248 0,0.166 -0.086,0.331 0,0.497 0.426,-0.247 0.51,-0.747 1.022,-0.913 0.171,-0.084 0.426,-0.166 0.597,0 0.086,0 0.257,0.332 0.257,0.497 0.084,0.416 -0.428,0.916 -0.683,1.164 -0.341,0.334 -0.683,0.831 -0.851,1.247"
             style="fill:none;stroke:#153362;stroke-width:0.50400001;stroke-linecap:round;stroke-linejoin:round;stroke-miterlimit:10;stroke-opacity:1;stroke-dasharray:none"
             id="path9391" />
        </g>
      </g>
    </g>
  </g>
</svg>
